<?xml version="1.0" encoding="utf-8"?>
<!-- Generator: Adobe Illustrator 21.1.0, SVG Export Plug-In . SVG Version: 6.00 Build 0)  -->
<svg version="1.1" id="Layer_1" xmlns="http://www.w3.org/2000/svg" xmlns:xlink="http://www.w3.org/1999/xlink" x="0px" y="0px"
	 viewBox="0 0 57 67.1" style="enable-background:new 0 0 57 67.1;" xml:space="preserve">
<style type="text/css">
	.st0{fill:#039FDA;}
	.st1{fill:#3A0E79;}
</style>
<path class="st0" d="M56,36.8c0.9-7.5,1.9-16.1-0.3-20.9C52.4,6.6,42.6,0,32.2,0C19,0,7.8,10.6,7.5,23.2L0.2,42
	C-0.1,42.7,0,43.4,0.4,44c0.4,0.6,1,1,1.8,1.1L8,45.7l2.1,10.5c0.2,1.2,1.3,1.9,2.4,1.9l8.2-0.6l-0.2,7.1c0,0.6,0.2,1.2,0.6,1.7
	c0.4,0.5,1,0.7,1.7,0.7l31.5-0.3c0.6,0,1.3-0.3,1.7-0.8s0.7-1.1,0.6-1.8l-1.2-13.2c-0.2-2.5-0.3-5-0.1-7.6
	C55.3,41.5,55.6,39.2,56,36.8z M50.7,51.4l1,10.6l-26.5,0.3l0.2-5.4l7.7-1.4l-0.8-4.6l-9.5,1.7l-8.6,0.6L12.1,43
	c-0.2-1-1-1.7-2.1-1.9l-4.4-0.3L12,24.5c0.1-0.3,0.1-0.6,0.1-0.8c0-10.3,9.2-19,20-19c8.4,0,16.5,5.4,19,12.8c0,0.1,0.1,0.1,0.1,0.2
	c1.7,3.6,0.7,11.9-0.1,18.5c-0.3,2.5-0.6,4.8-0.7,6.8C50.4,45.8,50.4,48.6,50.7,51.4z"/>
<path class="st1" d="M32.7,23.6l2-0.1c0.3,0,0.6-0.1,0.8-0.3c0.2-0.2,0.3-0.5,0.3-0.8l0.1-3.7c0-0.5-0.3-1-0.8-1h-0.1l-2-0.2
	c-0.2-0.4-0.4-0.8-0.7-1.2l0.9-1.9c0.3-0.5,0.1-1.1-0.3-1.4l-3.2-1.9c-0.5-0.3-1.1-0.1-1.4,0.3L26.9,13c-0.5-0.1-1-0.1-1.4,0
	l-1.2-1.7v-0.1c-0.1-0.2-0.3-0.3-0.6-0.3c-0.3-0.1-0.6,0-0.8,0.1l-3.2,1.7c-0.3,0.1-0.5,0.3-0.6,0.6c-0.1,0.3-0.1,0.6,0,0.8l0.8,1.9
	c-0.1,0.2-0.3,0.4-0.4,0.6c-0.1,0.2-0.2,0.4-0.3,0.6l-2,0.1c-0.3,0-0.6,0.1-0.8,0.3s-0.3,0.5-0.3,0.8v3.7c0,0.5,0.3,1,0.8,1H17
	l2,0.3c0.2,0.4,0.4,0.8,0.7,1.2l-0.9,1.8c-0.3,0.5-0.1,1.1,0.3,1.4l3.2,2c0.5,0.3,1.1,0.1,1.5-0.3l1.2-1.6c0.5,0.1,0.9,0.1,1.4,0
	l1.2,1.7v-0.1c0.3,0.4,1,0.6,1.4,0.2l3.3-1.8c0.3-0.1,0.5-0.3,0.6-0.6c0.1-0.3,0.1-0.6,0-0.8L32,24.8c0.1-0.2,0.3-0.4,0.4-0.6
	C32.5,24.1,32.6,23.9,32.7,23.6z M29.7,22.6c-0.9,1.5-2.6,2.3-4.4,2c-1.7-0.3-3.1-1.5-3.5-3.2c-0.4-1.7,0.3-3.5,1.7-4.5
	c1.4-1,3.2-1.1,4.8-0.2c1,0.6,1.7,1.5,1.9,2.6C30.4,20.5,30.2,21.6,29.7,22.6z"/>
<path class="st1" d="M48.9,29.9l-1.4-0.8c0-0.3-0.1-0.8-0.1-1.1l1.2-1c0.3-0.3,0.4-0.8,0.2-1.1l-1.7-2.4c-0.3-0.3-0.8-0.4-1.1-0.2
	l-1.5,0.8c-0.3-0.2-0.6-0.3-1-0.4l-0.3-1.6V22c-0.1-0.2-0.1-0.3-0.3-0.5c-0.2-0.1-0.4-0.2-0.6-0.1l-2.9,0.3c-0.2,0-0.4,0.1-0.6,0.3
	c-0.1,0.1-0.2,0.3-0.2,0.6v1.7c-0.1,0.1-0.3,0.2-0.5,0.3c-0.1,0.1-0.3,0.2-0.4,0.3l-1.5-0.6c-0.2-0.1-0.4-0.1-0.6,0
	c-0.2,0.1-0.3,0.3-0.5,0.5l-1.2,2.7c-0.1,0.3-0.1,0.8,0.3,1h0.1l1.4,0.8c0,0.4,0,0.8,0.1,1.2l-1.2,1c-0.3,0.3-0.4,0.8-0.2,1.1
	l1.7,2.4c0.3,0.3,0.8,0.4,1.1,0.2l1.4-0.8c0.3,0.2,0.6,0.3,1,0.4l0.3,1.6v0.1c0.1,0.4,0.6,0.7,1,0.6l2.9-0.3c0.2,0,0.4-0.1,0.6-0.3
	c0.1-0.1,0.2-0.3,0.2-0.6l0.1-1.7c0.1-0.1,0.3-0.2,0.5-0.3c0.1-0.1,0.3-0.2,0.4-0.3l1.5,0.6c0.2,0.1,0.4,0.1,0.6,0
	c0.2-0.1,0.3-0.3,0.5-0.5l1.2-2.7C49.4,30.7,49.2,30.3,48.9,29.9z M43.6,32c-1.2,0.8-2.7,0.8-3.9,0.1c-1.2-0.8-1.8-2.1-1.6-3.5
	c0.2-1.4,1.3-2.5,2.6-2.8c1.4-0.3,2.8,0.2,3.6,1.4c0.6,0.8,0.8,1.7,0.6,2.6C44.8,30.7,44.3,31.5,43.6,32z"/>
</svg>
