<?xml version="1.0" encoding="utf-8"?>
<!-- Generator: Adobe Illustrator 21.1.0, SVG Export Plug-In . SVG Version: 6.00 Build 0)  -->
<svg version="1.1" id="Layer_1" xmlns="http://www.w3.org/2000/svg" xmlns:xlink="http://www.w3.org/1999/xlink" x="0px" y="0px"
	 viewBox="0 0 66 66" style="enable-background:new 0 0 66 66;" xml:space="preserve">
<style type="text/css">
	.st0{fill:#039FDA;}
	.st1{fill:#3A0E79;}
</style>
<path class="st0" d="M44.2,59.5c-5.9-1.5-9.7-3.7-11.6-5.1c0,0-0.1-0.1-0.1-0.1c-0.9-0.6-1.3-1.1-1.3-1.1
	c-7.2-6.4-7.3-16.6-0.1-22.9c3.5-3.1,8.2-4.7,12.8-4.7c4.7,0,9.5,1.6,13.1,4.8c7.2,6.4,7.3,16.6,0.1,22.9c-1.6,1.4-3.5,2.5-5.5,3.3
	c3.5,3.5,10.7,5.7,10.7,5.7C62.3,62.4,53.1,61.8,44.2,59.5L44.2,59.5z M21.8,37.5c-8.9,2.3-18.1,2.8-18.1,2.8s7.2-2.2,10.7-5.7
	c-2-0.8-3.9-1.9-5.5-3.3C1.8,25.1,1.8,14.8,9,8.4c3.6-3.2,8.4-4.8,13.1-4.8c4.7,0,9.3,1.6,12.8,4.7c4.3,3.8,6,9.1,5.1,14
	c-4.3,0.7-8.3,2.5-11.4,5.3c-3,2.7-5.1,6-6,9.7C22.4,37.4,22.1,37.4,21.8,37.5L21.8,37.5z M63.3,58.9c-1-0.3-2.9-1-4.9-1.9
	c0.4-0.3,0.7-0.6,1.1-0.9C63.7,52.4,66,47.4,66,42c0-5.4-2.4-10.5-6.7-14.3c-4.2-3.7-9.7-5.7-15.5-5.7c0,0-0.1,0-0.1,0
	c0.1-0.8,0.2-1.6,0.2-2.4c0-5.4-2.3-10.4-6.5-14.1C33.3,2,27.9,0,22.1,0C16.3,0,10.8,2,6.7,5.7C2.4,9.5,0,14.6,0,20
	c0,5.4,2.3,10.4,6.5,14.1c0.3,0.3,0.7,0.6,1.1,0.9c-2,1-3.9,1.7-4.9,1.9c-1.8,0.5-2.8,2.3-2.5,4.1c0.3,1.7,1.8,3,3.5,3
	c0.1,0,0.2,0,0.2,0c0.4,0,9.2-0.6,18.2-2.8c0,0.2,0,0.4,0,0.5c0,5.4,2.4,10.5,6.6,14.3c0.2,0.2,0.8,0.7,1.7,1.3l0.1,0.1l0,0
	c2.4,1.7,6.6,4.1,12.8,5.6C52.5,65.4,61.7,66,62,66c0.1,0,0.2,0,0.2,0c1.7,0,3.2-1.2,3.6-3C66.1,61.2,65.1,59.4,63.3,58.9L63.3,58.9
	z"/>
<path class="st1" d="M30,20.3c0,2.8-4.1,2.8-4.1,0S30,17.6,30,20.3"/>
<path class="st1" d="M24.2,20.3c0,2.8-4.1,2.8-4.1,0S24.2,17.6,24.2,20.3"/>
<path class="st1" d="M18.5,20.3c0,2.8-4.1,2.8-4.1,0S18.5,17.6,18.5,20.3"/>
<path class="st1" d="M40.2,42.4c0,2.8-4.1,2.8-4.1,0S40.2,39.6,40.2,42.4"/>
<path class="st1" d="M45.9,42.4c0,2.8-4.1,2.8-4.1,0S45.9,39.6,45.9,42.4"/>
<path class="st1" d="M51.7,42.4c0,2.8-4.1,2.8-4.1,0S51.7,39.6,51.7,42.4"/>
</svg>
