<?xml version="1.0" encoding="utf-8"?>
<!-- Generator: Adobe Illustrator 21.1.0, SVG Export Plug-In . SVG Version: 6.00 Build 0)  -->
<svg version="1.1" id="Layer_1" xmlns="http://www.w3.org/2000/svg" xmlns:xlink="http://www.w3.org/1999/xlink" x="0px" y="0px"
	 viewBox="0 0 53.7 67.2" style="enable-background:new 0 0 53.7 67.2;" xml:space="preserve">
<style type="text/css">
	.st0{fill:#3A0E79;}
	.st1{fill:#039FDA;}
</style>
<path class="st0" d="M39.5,19.3c-0.7,0-1.3,0.3-1.6,0.8c-0.6,0-1.2,0-1.8,0c-0.8,0-1.4,0.3-1.7,1.1c-1.1,2.2-2.2,4.5-3.3,6.7
	l-0.7,1.6c-0.1,0.1-0.1,0.2-0.1,0.3c0-0.1-0.1-0.1-0.1-0.3c-1.2-3.1-3-8.5-3.7-10.5c-0.2-0.6-0.7-1-1.4-1c-0.6-0.1-1.2,0.3-1.5,0.8
	L23.5,19c-0.4,0.8-0.8,1.6-1.2,2.4c-0.2,0.4-0.4,0.8-0.6,1.2c-0.3,0.7-0.7,1.4-1,2c-0.1,0.1-0.1,0.1-0.1,0.2c0,0,0,0-0.1,0
	c0,0-0.1-0.1-0.1-0.2c-0.4-1.3-1.3-3.8-1.6-4.8c-0.1-0.5-0.5-0.8-1.1-0.9c-0.5-0.1-1,0.1-1.4,0.5c-0.2,0.2-0.3,0.4-0.5,0.5
	c-0.1,0.1-0.3,0.1-0.3,0.1c-0.5,0.1-1.2,0-1.8,0c-0.1,0-0.3,0-0.5,0c-0.6,0-1.2,0.5-1.2,1.2c0,0.6,0.5,1.2,1.2,1.2
	c0.1,0,0.3,0,0.4,0c0.6,0,1.3,0,2,0c0.4,0,0.9-0.2,1.3-0.5c0.4,1.2,0.9,2.6,1.2,3.5c0.4,1.3,1.4,1.7,2,1.8c1.1,0.1,1.9-0.4,2.4-1.4
	c0.3-0.7,0.7-1.4,1-2c0.2-0.4,0.4-0.8,0.6-1.2c0.2-0.3,0.3-0.7,0.5-1.1c0.9,2.5,2.2,6.4,2.9,8.8c0.3,1.1,1.1,1.8,2,1.8
	c0.1,0,0.2,0,0.3,0c1.4,0,2-1.2,2.2-1.6l0.7-1.6c1.1-2.1,2.2-4.3,3.3-6.5c0.5,0,1.1,0,1.6,0c0.3,0.5,0.9,0.8,1.6,0.8
	c1.1,0,2-0.9,2-2C41.5,20.2,40.6,19.3,39.5,19.3z"/>
<path class="st1" d="M53.7,50.1c0-10.9,0-21.8,0-32.8c0-5.8-4.3-10.1-10.1-10.1h-1.9v3.6l0.1,0.5h0.5c1.2,0,2.2-0.1,3.5,0.3
	c2.4,0.8,3.8,2.9,3.8,5.6v29.4c0,1,0,2.1,0,3.1c0,2.3,0,4.8,0.1,7.1c0.1,1.6-0.5,3.1-1.6,4.1c-1.2,1.2-2.7,1.8-4.4,1.8
	c-4.9,0-9.8-0.1-14.7-0.1H10.2c-3.5,0-6-2.4-6-6c0-13,0-25.9,0-38.8c0-1,0-2,0.3-2.9c0.7-2.3,2.3-3.6,4.7-3.9
	c0.7-0.1,1.5-0.1,2.4-0.1h0.5V7.2H9.9c-0.7,0-1.4,0.1-2,0.2C3.1,8.6,0,12.5,0,17.2v24.6C0,47,0,52.2,0,57.3c0,0.9,0.1,1.8,0.4,2.8
	c0.9,3.4,4.3,7.1,9.4,7.1H10c2.6-0.1,5.2-0.1,7.7,0c1.1,0,2.2,0,3.3,0h2h10c3.7,0,7.5,0,11.3-0.1c4.6-0.1,8.8-4,9.1-8.6
	c0.1-2.2,0.1-4.4,0.1-6.6L53.7,50.1z"/>
<path class="st1" d="M39.6,11c0,1-0.4,1.4-1.4,1.4H15.7c-1.2,0-1.6-0.4-1.6-1.7c0-1,0-2.4,0-3.5c0-0.9,0.5-1.3,1.4-1.4
	c1,0,1.9,0,2.8-0.1c1.6-0.3,2.8-1.2,3.7-2.7c0.3-0.5,0.5-1,0.8-1.5c0.7-1,1.6-1.6,2.9-1.6c0.7,0,1.4,0,2.2,0c1.5,0,2.5,0.6,3.3,1.9
	c0.5,0.9,1.2,1.9,1.9,2.6C34.1,5.7,35.7,6,37.3,6c2.2-0.1,2.3,0.1,2.3,2.3C39.6,9.1,39.6,10.2,39.6,11z"/>
<path class="st0" d="M38.5,38.4H24.1v3.2h14.5h6.9v-3.2C42.1,38.4,41.8,38.4,38.5,38.4z"/>
<polygon class="st0" points="45.4,51.7 36.5,51.7 24.1,51.7 24.1,54.9 36.5,54.9 45.4,54.9 "/>
<path class="st0" d="M9.8,39.6c0,0.1,0,0.3,0.1,0.3l0.4,0.7c0.1,0.1,0.1,0.3,0.2,0.4s0.1,0.3,0.2,0.4l0.6,1.1
	c0.1,0.1,0.1,0.3,0.3,0.4l0.3,0.7c0.1,0.2,0.3,0.5,0.6,0.6c0.2,0.1,0.4,0.2,0.6,0.2c0.4,0,0.9-0.2,1.2-0.5c0.1-0.2,0.3-0.4,0.5-0.5
	l0.3-0.4c0.5-0.6,1-1.2,1.5-1.8l1.8-2.2c0.4-0.5,0.8-0.9,1.2-1.4l0.5-0.6c0.4-0.4,0.3-0.8,0.1-1c-0.3-0.3-0.7-0.5-1.1-0.2
	s-0.7,0.5-1,0.8c-0.5,0.5-1,0.9-1.6,1.4l-0.6,0.5c-0.3,0.3-0.7,0.7-1.1,1l-1.8,1.6l-2-2.2c-0.1-0.1-0.3-0.2-0.5-0.2h-0.1
	c-0.1,0-0.3,0.1-0.5,0.2C9.9,39.2,9.8,39.4,9.8,39.6z"/>
<path class="st0" d="M15.1,48c-2.9,0-5.3,2.4-5.3,5.3c0,2.9,2.4,5.3,5.3,5.3s5.3-2.4,5.3-5.3C20.4,50.4,18,48,15.1,48z M15.1,56.8
	c-2,0-3.5-1.6-3.5-3.5c0-2,1.6-3.5,3.5-3.5c2,0,3.5,1.6,3.5,3.5C18.7,55.2,17.1,56.8,15.1,56.8z"/>
</svg>
