<?xml version="1.0" encoding="utf-8"?>
<!-- Generator: Adobe Illustrator 22.0.1, SVG Export Plug-In . SVG Version: 6.00 Build 0)  -->
<svg version="1.1" id="Layer_1" xmlns="http://www.w3.org/2000/svg" xmlns:xlink="http://www.w3.org/1999/xlink" x="0px" y="0px"
	 viewBox="0 0 30 30" style="enable-background:new 0 0 30 30;" xml:space="preserve">
<style type="text/css">
	.st0{fill:#FFFFFF;}
	.st1{fill:#039FDA;}
</style>
<g id="Circle">
	<circle class="st0" cx="15" cy="15" r="14.5"/>
	<path class="st1" d="M15,30C6.7,30,0,23.3,0,15S6.7,0,15,0s15,6.7,15,15S23.3,30,15,30z M15,1C7.3,1,1,7.3,1,15s6.3,14,14,14
		s14-6.3,14-14S22.7,1,15,1z"/>
</g>
<g>
	<path class="st1" d="M21.3,21.1L21.3,21.1l4,0.7c0.1,0,0.3,0,0.3-0.2c0.1-0.1,0.1-0.3,0-0.4l-4.5-6l-0.5,0.4l4,5.3l-3.5-0.6
		c-0.2,0-0.3,0.1-0.4,0.2l-1.5,3.7l-1.8-6l-0.6,0.2l2,6.9c0,0.1,0.2,0.2,0.3,0.2h0c0.1,0,0.2-0.1,0.3-0.2L21.3,21.1L21.3,21.1z
		 M4.4,20c0,0.1,0.2,0.2,0.3,0.2L9,20.4l0.9,4.2c0,0.1,0.1,0.2,0.3,0.2c0.1,0,0.3-0.1,0.3-0.2l3.2-6.1l-0.6-0.3l-2.8,5.4L9.6,20
		c0-0.1-0.2-0.2-0.3-0.3l-3.8-0.1l4.5-4l-0.4-0.5l-5.1,4.6C4.4,19.8,4.3,19.9,4.4,20z"/>
	<path class="st1" d="M22.4,11.8c0.1-0.4,0.3-0.8,0.2-1.1c0-0.3-0.3-0.7-0.5-1c-0.1-0.2-0.3-0.4-0.3-0.5c-0.1-0.1-0.1-0.4-0.1-0.6
		c-0.1-0.4-0.1-0.8-0.3-1.1c-0.2-0.3-0.6-0.5-0.9-0.7c-0.2-0.1-0.4-0.2-0.5-0.3c-0.1-0.1-0.2-0.3-0.4-0.5c-0.2-0.3-0.5-0.7-0.8-0.8
		C18.4,5,18,5,17.6,5c-0.2,0-0.5,0-0.6,0c-0.1,0-0.4-0.1-0.6-0.2c-0.4-0.2-0.8-0.4-1.1-0.4c-0.3,0-0.7,0.2-1,0.4
		c-0.2,0.1-0.5,0.2-0.6,0.2c-0.1,0-0.3,0-0.6,0c-0.5,0-0.9,0-1.2,0.2S11.3,5.7,11.1,6c-0.1,0.2-0.3,0.3-0.3,0.4
		c-0.1,0.1-0.3,0.2-0.5,0.3C9.8,7,9.5,7.2,9.3,7.4C9.1,7.7,9,8.1,9,8.5c0,0.2-0.1,0.5-0.1,0.6S8.7,9.5,8.5,9.7
		c-0.2,0.3-0.5,0.7-0.5,1c0,0.3,0.1,0.7,0.2,1.1c0.1,0.2,0.2,0.4,0.2,0.6c0,0.1,0,0.4,0,0.6c0,0.4-0.1,0.8,0,1.1
		c0.1,0.3,0.4,0.6,0.7,0.9c0.2,0.2,0.3,0.3,0.4,0.4c0.1,0.1,0.2,0.3,0.3,0.5c0.2,0.4,0.3,0.8,0.6,1c0.2,0.2,0.7,0.3,1.1,0.4
		c0.2,0.1,0.5,0.1,0.6,0.2c0.1,0.1,0.3,0.2,0.5,0.4c0.3,0.3,0.7,0.5,1,0.6c0.1,0,0.2,0,0.3,0c0.3,0,0.6-0.1,0.9-0.1
		c0.2-0.1,0.5-0.1,0.6-0.1s0.4,0.1,0.6,0.1c0.3,0.1,0.6,0.1,0.9,0.1c0.1,0,0.2,0,0.3,0c0.3-0.1,0.6-0.3,1-0.6
		c0.2-0.2,0.4-0.3,0.5-0.4c0.1-0.1,0.4-0.1,0.6-0.2c0.4-0.1,0.8-0.2,1.1-0.4c0.2-0.2,0.4-0.6,0.6-1c0.1-0.2,0.2-0.4,0.3-0.5
		c0.1-0.1,0.2-0.3,0.4-0.4c0.3-0.3,0.6-0.6,0.7-0.9c0.1-0.3,0.1-0.7,0-1.1c0-0.2,0-0.5,0-0.6C22.2,12.2,22.3,12,22.4,11.8z
		 M21.8,11.6c-0.1,0.3-0.2,0.5-0.2,0.7c0,0.2,0,0.5,0,0.7c0,0.4,0.1,0.7,0,0.8c-0.1,0.2-0.3,0.4-0.6,0.6c-0.2,0.2-0.4,0.4-0.5,0.5
		s-0.2,0.4-0.3,0.7c-0.2,0.3-0.3,0.6-0.4,0.8c-0.1,0.1-0.4,0.2-0.8,0.3c-0.3,0.1-0.5,0.1-0.7,0.2c-0.2,0.1-0.4,0.3-0.6,0.4
		c-0.3,0.2-0.5,0.5-0.7,0.5c0,0-0.1,0-0.1,0c-0.2,0-0.5-0.1-0.7-0.1c-0.3-0.1-0.5-0.1-0.7-0.1c-0.2,0-0.5,0.1-0.7,0.1
		c-0.3,0.1-0.5,0.1-0.7,0.1c-0.1,0-0.1,0-0.1,0c-0.2,0-0.4-0.2-0.7-0.5c-0.2-0.2-0.4-0.3-0.6-0.4s-0.4-0.2-0.7-0.2
		c-0.4-0.1-0.7-0.2-0.8-0.3c-0.1-0.1-0.2-0.4-0.4-0.8c-0.1-0.3-0.2-0.5-0.3-0.7c-0.1-0.2-0.3-0.3-0.5-0.5c-0.3-0.3-0.5-0.5-0.6-0.6
		c-0.1-0.2,0-0.5,0-0.8c0-0.3,0.1-0.5,0-0.7c0-0.2-0.1-0.5-0.2-0.7c-0.1-0.4-0.2-0.7-0.2-0.8c0-0.2,0.2-0.4,0.4-0.7
		c0.2-0.2,0.3-0.5,0.4-0.6c0.1-0.2,0.1-0.5,0.2-0.7c0.1-0.4,0.1-0.7,0.2-0.8c0.1-0.1,0.4-0.3,0.7-0.4c0.3-0.2,0.5-0.3,0.7-0.4
		c0.1-0.1,0.3-0.3,0.4-0.5c0.2-0.3,0.5-0.6,0.6-0.7c0.2-0.1,0.5-0.1,0.9-0.1c0.2,0,0.5,0,0.7,0c0.2,0,0.5-0.2,0.8-0.3
		C14.9,5.1,15.2,5,15.4,5c0.2,0,0.5,0.1,0.8,0.3c0.3,0.1,0.5,0.2,0.7,0.3c0.2,0.1,0.5,0.1,0.8,0.1c0.4,0,0.7,0,0.9,0.1
		c0.1,0.1,0.3,0.3,0.6,0.6c0.2,0.2,0.3,0.4,0.5,0.6c0.2,0.1,0.4,0.3,0.6,0.4c0.3,0.2,0.6,0.3,0.7,0.5C21,8,21,8.3,21.1,8.6
		c0,0.3,0.1,0.5,0.2,0.7c0.1,0.2,0.2,0.4,0.4,0.6c0.2,0.3,0.4,0.6,0.4,0.7C22,10.9,21.9,11.2,21.8,11.6L21.8,11.6z"/>
	<path class="st1" d="M15.3,7.1c-2.5,0-4.5,2-4.5,4.4s2,4.4,4.5,4.4s4.5-2,4.5-4.4S17.8,7.1,15.3,7.1z M15.3,15.2
		c-2.1,0-3.8-1.7-3.8-3.7s1.7-3.7,3.8-3.7s3.8,1.7,3.8,3.7S17.4,15.2,15.3,15.2z"/>
</g>
</svg>
