<?xml version="1.0" encoding="utf-8"?>
<!-- Generator: Adobe Illustrator 22.0.1, SVG Export Plug-In . SVG Version: 6.00 Build 0)  -->
<svg version="1.1" id="Layer_1" xmlns="http://www.w3.org/2000/svg" xmlns:xlink="http://www.w3.org/1999/xlink" x="0px" y="0px"
	 viewBox="0 0 30 30" style="enable-background:new 0 0 30 30;" xml:space="preserve">
<style type="text/css">
	.st0{fill:#FFFFFF;}
	.st1{fill:#039FDA;}
</style>
<g>
	<g id="Circle">
		<circle class="st0" cx="15" cy="15" r="14.5"/>
		<path class="st1" d="M15,30C6.7,30,0,23.3,0,15S6.7,0,15,0s15,6.7,15,15S23.3,30,15,30z M15,1C7.3,1,1,7.3,1,15s6.3,14,14,14
			s14-6.3,14-14S22.7,1,15,1z"/>
	</g>
	<path id="Bottom" class="st1" d="M25.6,20.2H5.3c-0.5,0-1-0.4-1-1l0,0c0-0.5,0.4-1,1-1h20.3c0.5,0,1,0.4,1,1l0,0
		C26.6,19.7,26.2,20.2,25.6,20.2z"/>
	<path id="Top" class="st1" d="M24.2,17.1H6.4c-0.3,0-0.5-0.2-0.5-0.5V9.4c0-0.3,0.2-0.5,0.5-0.5h17.8c0.3,0,0.5,0.2,0.5,0.5v7.4
		C24.7,16.9,24.4,17.1,24.2,17.1z"/>
	<rect id="Inside" x="6.7" y="10" class="st0" width="17.2" height="6.1"/>
</g>
</svg>
