<?xml version="1.0" encoding="utf-8"?>
<!-- Generator: Adobe Illustrator 21.1.0, SVG Export Plug-In . SVG Version: 6.00 Build 0)  -->
<svg version="1.1" id="Layer_1" xmlns="http://www.w3.org/2000/svg" xmlns:xlink="http://www.w3.org/1999/xlink" x="0px" y="0px"
	 viewBox="0 0 60.5 60.5" style="enable-background:new 0 0 60.5 60.5;" xml:space="preserve">
<style type="text/css">
	.st0{fill:#039FDA;}
	.st1{fill:#3A0E79;}
</style>
<path class="st0" d="M40.2,26.2c3.1-2.8,5-6.5,5-11.2c0-8.4-6.9-15-15-15s-15,6.9-15,15.3c0,4.4,1.9,8.4,5,11.2
	C8.4,31.2,0,44.6,0,60.5h5.9c0-16.5,10.9-30.2,24.3-30.2s24.3,13.4,24.3,30.2h5.9C60.5,44.6,52.1,31.2,40.2,26.2z M30.2,6.2
	c5,0,9,4.1,9,9s-4.1,8.7-9,8.7s-9-4.1-9-8.7C21.2,10.6,25.3,6.2,30.2,6.2z"/>
<polygon class="st1" points="32.7,39.3 27.9,39.3 27.9,46.2 21,46.2 21,50.7 27.9,50.7 27.9,57.7 32.7,57.7 32.7,50.7 39.6,50.7 
	39.6,46.2 32.7,46.2 "/>
</svg>
