<?xml version="1.0" encoding="utf-8"?>
<!-- Generator: Adobe Illustrator 23.0.6, SVG Export Plug-In . SVG Version: 6.00 Build 0)  -->
<svg version="1.1" id="Layer_1" xmlns="http://www.w3.org/2000/svg" xmlns:xlink="http://www.w3.org/1999/xlink" x="0px" y="0px"
	 viewBox="0 0 512 512" style="enable-background:new 0 0 512 512;" xml:space="preserve">
<style type="text/css">
	.st0{fill:#FFFFFF;}
</style>
<path class="st0" d="M451.7,99.7l-71.4-71.4C364.7,12.7,334,0,312,0H72C50,0,32,18,32,40v432c0,22,18,40,40,40h368c22,0,40-18,40-40
	V168C480,146,467.3,115.3,451.7,99.7z M352,46.3c2.2,1.5,4.1,3.1,5.7,4.6l71.4,71.4c1.6,1.6,3.1,3.5,4.6,5.7H352V46.3z M448,472
	c0,4.3-3.7,8-8,8H72c-4.3,0-8-3.7-8-8V40c0-4.3,3.7-8,8-8h240c2.4,0,5.1,0.3,8,0.8V160h127.1c0.6,2.9,0.9,5.6,0.9,8V472z"/>
<path class="st0" d="M414.5,316.8c-2.1,1.3-8.1,2.1-11.9,2.1c-12.4,0-27.6-5.7-49.1-14.9c8.3-0.6,15.8-0.9,22.6-0.9
	c12.4,0,16,0,28.2,3.1C416.4,309.2,416.5,315.5,414.5,316.8L414.5,316.8z M199.4,318.7c4.8-8.4,9.7-17.3,14.7-26.8
	c12.2-23.1,20-41.3,25.7-56.2c11.5,20.9,25.8,38.6,42.5,52.8c2.1,1.8,4.3,3.5,6.7,5.3C254.9,300.6,225.4,308.8,199.4,318.7z
	 M239.2,99.8c6.8,0,10.7,17.1,11,33.2c0.3,16-3.4,27.2-8.1,35.6c-3.9-12.4-5.7-31.8-5.7-44.5C236.4,124.1,236.1,99.8,239.2,99.8z
	 M105.8,407c3.9-10.5,19.1-31.3,41.6-49.8c1.4-1.1,4.9-4.4,8.1-7.4C132,387.4,116.2,402.3,105.8,407L105.8,407z M421,294.7
	c-6.8-6.7-22-10.2-45-10.5c-15.6-0.2-34.3,1.2-54.1,3.9c-8.8-5.1-17.9-10.6-25.1-17.3c-19.2-18-35.2-42.9-45.2-70.3
	c0.6-2.6,1.2-4.8,1.7-7.1c0,0,10.8-61.5,7.9-82.3c-0.4-2.9-0.6-3.7-1.4-5.9l-0.9-2.5c-2.9-6.8-8.7-14-17.8-13.6l-5.3-0.2h-0.1
	c-10.1,0-18.4,5.2-20.5,12.8c-6.6,24.3,0.2,60.5,12.5,107.4l-3.2,7.7c-8.8,21.4-19.8,43-29.5,62l-1.3,2.5
	c-10.2,20-19.5,37-27.9,51.4l-8.7,4.6c-0.6,0.4-15.5,8.2-19,10.3c-29.6,17.7-49.3,37.8-52.5,53.8c-1,5-0.3,11.5,5,14.6l8.4,4.2
	c3.6,1.8,7.5,2.7,11.4,2.7c21.1,0,45.6-26.2,79.3-85.1c39-12.7,83.4-23.3,122.3-29.1c29.6,16.7,66,28.3,89,28.3
	c4.1,0,7.6-0.4,10.5-1.2c4.4-1.1,8.1-3.6,10.4-7.1c4.4-6.7,5.4-15.9,4.1-25.4C425.7,300.6,423.4,297.1,421,294.7L421,294.7z"/>
</svg>
