<?xml version="1.0" encoding="utf-8"?>
<!-- Generator: Adobe Illustrator 23.0.6, SVG Export Plug-In . SVG Version: 6.00 Build 0)  -->
<svg version="1.1" id="Capa_1" xmlns="http://www.w3.org/2000/svg" xmlns:xlink="http://www.w3.org/1999/xlink" x="0px" y="0px"
	 viewBox="0 0 612.8 612.8" style="enable-background:new 0 0 612.8 612.8;" xml:space="preserve">
<style type="text/css">
	.st0{fill:#FFFFFF;}
</style>
<g>
	<path class="st0" d="M612.8,306.4c0-169-137-306-306-306S0,137.4,0,306.4s137,306,306,306S612.8,475.4,612.8,306.4z M29.7,306.4
		C29.7,154.2,153.8,30,306,30s277.2,124.2,277.2,276.4S459.1,582.8,306.9,582.8S29.7,458.6,29.7,306.4z M299.7,449
		c0,0-0.8,0-0.8-0.8c-0.8-0.8-1.6-0.8-2.4-1.6L186,336c-3.2-3.2-4-6.4-4-10.4s1.6-7.2,4-10.4c5.6-5.6,15.2-5.6,20.8,0l84.9,84.9
		V165.4c0-8,6.4-14.4,14.4-14.4c8,0,14.4,6.4,14.4,14.4v234.7l84-84c5.6-5.6,15.2-5.6,20.8,0c5.6,5.6,5.6,15.2,0,20.8l-109,108.9
		c-0.8,0.8-1.6,1.6-2.4,1.6l-0.8,0.8c-0.8,0-0.8,0.8-1.6,0.8c-0.8,0-0.8,0-1.6,0.8c-0.8,0-0.8,0-1.6,0c-1.6,0-4,0-5.6,0
		c-0.8,0-0.8,0-1.6,0C300.4,449.8,300.4,449.8,299.7,449C300.4,449,299.7,449,299.7,449z"/>
</g>
</svg>
