<?xml version="1.0" encoding="utf-8"?>
<!-- Generator: Adobe Illustrator 23.0.1, SVG Export Plug-In . SVG Version: 6.00 Build 0)  -->
<svg version="1.1" id="Layer_1" xmlns="http://www.w3.org/2000/svg" xmlns:xlink="http://www.w3.org/1999/xlink" x="0px" y="0px"
	 viewBox="0 0 202.4 195.5" style="enable-background:new 0 0 202.4 195.5;" xml:space="preserve">
<style type="text/css">
	.st0{display:none;}
	.st1{display:inline;}
	.st2{display:inline;fill:none;stroke:#0A9EDA;stroke-miterlimit:10;}
	.st3{display:inline;fill:#3D2975;}
	.st4{display:inline;fill:#7CBE43;}
	.st5{fill:#7CBE43;}
	.st6{fill:#3D2975;}
	.st7{fill:#FFFFFF;}
	.st8{fill:#0A9EDA;}
</style>
<g class="st0">
	<g id="yXXrmI_1_" class="st1">
		
			<image style="overflow:visible;" width="225" height="225" id="yXXrmI" xlink:href="3988EB577193BEAE.jpg"  transform="matrix(1 0 0 1 790.6641 378.4929)">
		</image>
	</g>
	<rect x="310.8" y="120.2" class="st2" width="67.6" height="67.6"/>
	<rect x="310.8" y="255.4" class="st3" width="67.6" height="67.6"/>
	<rect x="310.8" y="390.6" class="st4" width="67.6" height="67.6"/>
	<polygon class="st4" points="169.9,404.3 197.7,402 185.6,427.1 212.4,435 192.1,454.1 214.2,471.1 188.3,481.5 202.8,505.3 
		174.9,505.7 179.9,533.2 153.7,523.5 148.4,550.9 127.5,532.4 112.6,556 99.8,531.2 77.4,547.8 74.4,520.1 47.5,527.5 54.8,500.6 
		27,497.8 43.5,475.3 18.6,462.6 42.2,447.6 23.5,426.8 50.9,421.3 41,395.2 68.5,400 68.7,372.1 92.7,386.4 102.9,360.5 
		120.1,382.5 139,362 147,388.8 172.1,376.5 	"/>
	<text transform="matrix(0.9369 -0.2506 -1.088033e-02 0.9999 -275.0459 120.1828)" class="st1"><tspan x="0" y="0" style="fill:#FFFFFF;stroke:#0A9EDA;stroke-miterlimit:10; font-family:'MuseoSans-900'; font-size:85px; letter-spacing:-1;">F</tspan><tspan x="45" y="0" style="fill:#FFFFFF;stroke:#0A9EDA;stroke-miterlimit:10; font-family:'MuseoSans-900'; font-size:85px; letter-spacing:-4.1;">R</tspan><tspan x="98.1" y="0" style="fill:#FFFFFF;stroke:#0A9EDA;stroke-miterlimit:10; font-family:'MuseoSans-900'; font-size:85px; letter-spacing:-1;">E</tspan><tspan x="146.4" y="0" style="fill:#FFFFFF;stroke:#0A9EDA;stroke-miterlimit:10; font-family:'MuseoSans-900'; font-size:85px; letter-spacing:-5.2;">E</tspan><tspan x="190.4" y="0" style="fill:#FFFFFF;stroke:#0A9EDA;stroke-miterlimit:10; font-family:'MuseoSans-900'; font-size:85px; letter-spacing:-1;">!</tspan></text>
</g>
<g class="st0">
	<polygon class="st3" points="197.3,120.4 197.2,133.1 160.4,143 152.4,137 153.1,76.2 188.7,66.6 196.7,72.6 196.6,85.4 
		174.9,91.2 174.8,94.1 184.1,91.6 192.1,97.6 192,110.4 174.6,115 174.6,118.3 189.3,114.4 	"/>
	<path class="st3" d="M99.8,134.6l0-0.2c5.7-4.6,8.6-12.4,8.7-18.9c0.1-5.9-1.7-10.1-4.8-12.6l-8.6-6.4c-1.4-1-3.1-1.6-5-1.9
		c-2.5-0.4-5.2,0-11,1.5l-19.8,5.3l-2.2,61.4l9.5,5.3l13.9-3.7l0.2-20.5l2.5-0.7l6,10.7l8,6l15.5-4.2L99.8,134.6z M81.1,116.5
		c0,0,5-1.3,5.2-1.4c-0.3,3.6-2.2,6.3-5.2,7.8L81.1,116.5z"/>
	<polygon class="st3" points="210.1,110.9 216,115.4 215.8,128.1 203.2,131.5 195.2,125.5 195.4,112.7 201.8,111 195.8,106.6 
		195,64.9 209.4,61.1 217.4,67.1 215.6,109.4 	"/>
	<polygon class="st3" points="152.1,132.5 152,145.2 115.2,155 107.2,149 107.8,88.3 143.5,78.7 151.5,84.7 151.4,97.5 129.6,103.3 
		129.6,106.2 138.9,103.7 146.9,109.7 146.7,122.4 129.4,127.1 129.3,130.4 144.1,126.4 	"/>
	<polygon class="st3" points="56.2,135.9 56.1,148.7 38.7,153.3 38.4,175.8 24.5,179.6 24.5,179.6 15,174.2 17.2,112.8 52,103.5 
		60.1,109.5 59.9,122.2 39,127.8 38.9,132.4 48.2,129.9 	"/>
	<polygon class="st3" points="97.2,160.1 215.8,128.1 207.8,122.1 88,154.7 	"/>
</g>
<g>
	<g>
		<polygon class="st5" points="154.1,44.4 181.7,42.1 169.7,67 196.2,74.7 176.1,93.6 198,110.5 172.4,120.8 186.7,144.4 
			159.1,144.8 164,172 138.1,162.4 132.8,189.5 112.1,171.1 97.4,194.5 84.7,170 62.5,186.5 59.6,159 33,166.3 40.2,139.7 
			12.7,136.9 29,114.6 4.4,102.1 27.7,87.2 9.2,66.7 36.3,61.2 26.5,35.4 53.7,40.1 53.9,12.4 77.6,26.7 87.8,1 104.8,22.8 
			123.6,2.5 131.5,29 156.3,16.9 		"/>
		<polygon class="st5" points="48.2,151.1 20.7,153.4 32.7,128.5 6.1,120.8 26.3,101.9 4.4,85.1 30,74.7 15.6,51.1 43.3,50.7 
			38.4,23.5 64.3,33.2 69.6,6 90.3,24.4 105,1 117.6,25.5 139.8,9.1 142.8,36.5 169.4,29.2 162.2,55.9 189.7,58.6 173.3,80.9 
			198,93.4 174.7,108.3 193.2,128.8 166.1,134.3 175.9,160.1 148.6,155.4 148.4,183.1 124.7,168.8 114.5,194.5 97.6,172.7 78.8,193 
			70.9,166.5 46.1,178.7 		"/>
	</g>
	<g>
		<path class="st6" d="M199.6,80.6l1.7-41.9l-7.9-5.9l-14.2,3.8l0.1,6.4l-6.4-4.8l-35.3,9.4l-0.7,60.2l0.2,0.2l-0.6,0.2l0.1-4.8
			l-7.9-5.9l-14.6,3.9l0-3.3l17.2-4.6l0.1-12.6l-7.9-5.9l-9.2,2.5l0-2.9l21.5-5.8l0.1-12.6l-7.9-5.9l-35.3,9.4l-0.2,20.4
			c-0.8-2.5-2.1-4.5-3.8-5.9l-8.5-6.4c-1.4-1-3.1-1.6-4.9-1.9c-2.4-0.4-5.2,0-10.9,1.5l-19.6,5.2l-0.3,7.1l-6.9-5.2
			c0,0-34.5,9.2-34.5,9.2L1,144.7l9.4,5.3l0,0l13.8-3.7l0.2-22.3l17.2-4.6l0.1-12.6l-7.9-5.9l-9.2,2.5l0-4.5l19.4-5.2l-1.4,40
			l9.4,5.3l13.8-3.7l0.2-20.3l2.4-0.7l5.9,10.6l0.2,0.2l-1.5,0.4l9.2,5.4l15.4-4.1l0,0l102.1-27.5l0.1-12.6l-5.9-4.4L199.6,80.6z
			 M66.4,94l0.1-6.3c0,0,5-1.3,5.1-1.4C71.3,89.9,69.4,92.6,66.4,94z M159,86.1l17.2-4.6l0.1-12.6l-7.9-5.9l-9.2,2.5l0-2.9l20.4-5.5
			l0.4,20.7l5.9,4.4l-6.3,1.7l-0.1,6.1l-5.9-4.5L159,89.4L159,86.1z M85,105.4c3.7-3,6.3-7.4,7.6-11.9l-0.3,24.2L85,105.5L85,105.4z
			"/>
		<g>
			<path class="st7" d="M2.2,83.9l34.5-9.2l-0.1,12.6l-20.7,5.5l-0.1,12.6l17.2-4.6l-0.1,12.6l-17.2,4.6l-0.2,22.3l-13.8,3.7
				L2.2,83.9z"/>
			<path class="st7" d="M43.9,72.8l19.6-5.3C69.3,66,72,65.7,74.5,66c6.4,0.9,10.3,6,10.2,14.7c-0.1,6.4-3,14.1-8.6,18.7l0,0.2
				c0,0,0.8,0.9,2.1,3l10.7,18.1l-15.4,4.1l-9.8-17.6l-6.5,1.7L57,129.2l-13.8,3.7L43.9,72.8z M63.4,94.7c4.4-1.2,7.2-4.5,7.3-9.3
				c0-4.5-1.5-6.8-8.4-5l-4.7,1.2l-0.2,14.6L63.4,94.7z"/>
			<polygon class="st7" points="92.9,59.7 128.2,50.2 128.1,62.8 106.6,68.6 106.5,79.5 123.6,74.9 123.5,87.5 106.3,92.1 
				106.2,103.5 128.8,97.5 128.7,110.1 92.3,119.8 			"/>
			<polygon class="st7" points="137.7,47.7 173,38.2 172.9,50.8 151.4,56.6 151.2,67.5 168.4,62.9 168.3,75.6 151.1,80.2 151,91.5 
				173.6,85.5 173.5,98.1 137,107.8 			"/>
			<polygon class="st7" points="179.2,36.6 193.4,32.8 191.7,74.7 180.1,77.8 			"/>
			<polygon class="st7" points="179.6,83.9 192.1,80.5 191.9,93.2 179.5,96.5 			"/>
		</g>
		<g>
			<path class="st8" d="M91.8,120.5l0.7-61.2l36.3-9.7l-0.1,13.7L107.1,69l-0.1,9.9l17.2-4.6L124,87.9l-17.2,4.6l-0.1,10.3l22.6-6.1
				l-0.1,13.7L91.8,120.5z M93.4,60l-0.6,59.1l35.4-9.5l0.1-11.6l-22.6,6.1l0.1-12.4l17.2-4.6l0.1-11.6L106,80.2l0.1-12l21.5-5.8
				l0.1-11.6L93.4,60z"/>
			<path class="st8" d="M136.5,108.5l0.7-61.2l36.3-9.7l-0.1,13.7L151.8,57l-0.1,9.9l17.2-4.6L168.8,76l-17.2,4.6l-0.1,10.3
				l22.6-6.1L174,98.5L136.5,108.5z M138.2,48.1l-0.6,59.1l35.4-9.5l0.1-11.6l-22.6,6.1l0.1-12.4l17.2-4.6l0.1-11.6l-17.2,4.6
				l0.1-12l21.5-5.8l0.1-11.6L138.2,48.1z"/>
			<path class="st8" d="M1,144.7l0.7-61.2L37.2,74l-0.1,13.7l-20.7,5.5l-0.1,11.6l17.2-4.6l-0.1,13.7L16,118.5l-0.2,22.3L1,144.7z
				 M2.7,84.3L2,143.5l12.8-3.4l0.2-22.3l17.2-4.6l0.1-11.6l-17.2,4.6l0.1-13.7l20.7-5.5l0.1-11.6L2.7,84.3z"/>
			<path class="st8" d="M42.7,133.6l0.7-61.2l20-5.3c5.6-1.5,8.5-1.9,11.1-1.5c6.9,1,10.7,6.5,10.6,15.2c-0.1,7.2-3.4,14.5-8.5,18.8
				c0.3,0.4,1,1.3,1.9,2.8L89.6,121l-16.4,4.4l-9.8-17.6l-5.7,1.5l-0.2,20.3L42.7,133.6z M44.4,73.2l-0.6,59.1l12.8-3.4l0.2-20.3
				l7.2-1.9l9.8,17.6l14.4-3.8l-10.4-17.5c-1.3-2.1-2-3-2-3l-0.1-0.1l0-0.6l0.2-0.1c5.7-4.6,8.4-12.5,8.4-18.3
				c0.1-8.1-3.5-13.3-9.8-14.2c-2.5-0.4-5.3,0-10.7,1.5L44.4,73.2z M56.9,97L57,81.3l5-1.3c3.6-1,5.9-0.9,7.4,0.2
				c1.2,0.9,1.7,2.5,1.7,5.2c-0.1,4.9-2.9,8.5-7.6,9.8L56.9,97z M58,82.1l-0.1,13.6l5.4-1.4c4.3-1.2,6.8-4.4,6.9-8.9
				c0-2.3-0.4-3.7-1.3-4.4c-1.2-0.9-3.3-0.9-6.5-0.1L58,82.1z"/>
			<path class="st8" d="M179,97.1l0.1-13.7l13.5-3.6l-0.1,13.7L179,97.1z M180.1,84.3L180,95.8l11.5-3.1l0.1-11.6L180.1,84.3z
				 M179.6,78.4l-0.8-42.3l15.2-4.1l-1.8,42.9L179.6,78.4z M179.7,36.9l0.8,40.2l10.7-2.9l1.7-40.9L179.7,36.9z"/>
		</g>
	</g>
</g>
</svg>
