<?xml version="1.0" encoding="utf-8"?>
<!-- Generator: Adobe Illustrator 23.0.1, SVG Export Plug-In . SVG Version: 6.00 Build 0)  -->
<svg version="1.1" id="Layer_1" xmlns="http://www.w3.org/2000/svg" xmlns:xlink="http://www.w3.org/1999/xlink" x="0px" y="0px"
	 viewBox="0 0 600 784" style="enable-background:new 0 0 600 784;" xml:space="preserve">
<style type="text/css">
	.st0{fill-rule:evenodd;clip-rule:evenodd;fill:#3D2975;}
	.st1{fill-rule:evenodd;clip-rule:evenodd;fill:#0B9DD9;}
	.st2{fill-rule:evenodd;clip-rule:evenodd;fill:#7BBE43;}
	.st3{fill:#0B9DD9;}
</style>
<g>
	<path class="st0" d="M325,768.7c0,0-164.5,16.8-122.5-7.3s77.8-43.1,77.8-43.1s-70.6,14.1-90.1,14.9c-19.5,0.8-50-18.3-8-34.3
		c42-16,83.2-28.6,83.2-28.6s8.4-16-11.4-11.4c-19.8,4.6-96.2,15.3-96.2,15.3s-34.3-19.5,15.6-34c50-14.1,19.1-69.5-4.6-94.3
		c-8.8-9.5-46.2-60.3-90.1-114.1C7.5,343.9-48.2,206.9,75.8,78.3C114,39,223.9-10.2,321.2,64.2c0,0-195.8-83.2-276.3,135.5
		c0,0-38.2,88.9,55.3,201.9L193,521.8c0,0,33.2,44.6,31.7,92.4l-7.3,21.8c0,0,98.1-35.9,82,7.3c0,0,46.2,1.5,9.9,29l-16,13
		c0,0-3.1,8.8,17.2,8.8s42,5.7,7.3,31.7l-30.1,16c0,0-1.5,8.8,22.9,5.7C311.3,746.5,325,745.4,325,768.7z"/>
	<g>
		<g>
			<polygon id="SVGID_1_" class="st1" points="418.9,107 482.6,9.6 508.2,45.5 437.2,118 			"/>
		</g>
	</g>
	<g>
		<g>
			<polygon id="SVGID_3_" class="st2" points="465.1,186.3 593.7,121.8 597.5,165.7 475.4,205.4 			"/>
		</g>
	</g>
	<g>
		<g>
			<polygon id="SVGID_5_" class="st1" points="468.1,282.5 583.8,293.6 564.3,332.5 467,303.9 			"/>
		</g>
	</g>
	<g>
		<g>
			<polygon id="SVGID_7_" class="st2" points="435.7,360 529.6,428.7 496,476.7 423.9,377.5 			"/>
		</g>
	</g>
	<path class="st3" d="M422,256.5c0,88.2-63,161.4-146.5,177.4c-0.4-2.3,0-5,0.8-7.6c0.4-1.1,0.4-1.9,0-3.1c-1.1-3.1-3.8-4.2-5.7-5.7
		c-1.1-0.8-1.5-1.5-0.8-2.7c1.9-4.6,3.1-9.2,4.6-13.7c1.5-4.6,5-7.3,10.3-4.6c4.6,2.3,9.5,2.7,14.1,3.4c8.8,1.1,17.6,0,25.9-1.1
		c6.9-0.8,13.4-9.2,12.2-15.3c-0.8-4.2,0-6.9,3.1-9.9c2.7-3.1,5-6.5,3.1-11.1c-0.4-0.8,0-0.8,0.4-1.1c5-3.8,6.9-8.8,7.6-14.9
		c0.4-3.1,1.5-6.1,5-7.3c4.2-1.1,7.6-3.8,9.9-8c3.1-5,3.1-9.2-1.9-12.6s-9.2-7.6-11.4-13.7c0-0.4-0.4-1.1-0.4-1.5
		c-0.8-3.4-1.9-6.9-1.9-10.7c0-3.8,0.8-4.6,4.6-4.6c2.7,0,5.3-1.5,8.4-3.1c-11.8,0-11.1-3.4-10.3-4.6c1.5-3.1,3.1-6.1,5-8.8
		c1.9-2.3,3.1-4.6,3.4-7.6c0.8-3.1,0.8-6.1,1.1-9.2c2.3-13,1.5-25.9-3.4-38.2c-0.8-1.9-1.5-3.8-1.9-5.3c-0.4-1.5,0.8-2.7,2.3-2.3
		c3.1,1.5,6.5,3.1,9.5,5c0-0.4,0-1.1-0.4-1.5c-1.1-1.5-0.8-2.3,0.4-4.2c0.8-1.5,1.5-3.8,2.7-5.3c0,0,0-0.4-0.4-0.8
		c-1.9-1.9,0-2.3,1.1-3.1c1.5-0.8,3.8-0.4,5-2.3c-1.1-0.8-2.3-1.5-3.8-2.3c-1.1-0.4-1.1-1.1-0.4-1.9c3.1-5,3.1-5-2.7-6.5
		c-1.5-0.4-1.5-1.1-0.8-2.3c1.5-1.9,2.3-3.8,2.7-6.1c0.4-1.5,0.4-2.7-1.9-1.9c-1.5,0.4-3.4,0-5.3,0c-1.5,0-2.7-0.4-1.9-2.3
		c0.4-1.5,0-2.3-1.5-2.3c-1.9-0.4-4.2-1.1-6.1-1.5c-1.5-0.4-2.7-1.1-3.8-1.5c-2.3-1.5-4.6-1.9-6.5-3.4c0.4-1.5,2.3-1.1,2.7-3.1
		c-6.9,0-12.6-3.8-18.3-6.5c-1.1-0.4-2.7-0.8-3.1-1.5c-0.8-1.5,0.8-2.3,1.5-3.4c0.8-1.1-0.4-1.1-0.8-1.1c-2.7-0.8-5-1.5-7.3-2.7
		c-4.6-1.9-9.5-2.7-13.7-4.6c-0.8-0.4-4.2,1.1-1.5-1.9c-0.8-0.4,0-1.5-1.1-1.9c-1.5-0.4-1.5-1.1-1.1-2.3c0.4-1.1,0.4-2.3-1.5-1.9
		c-4.6,0.4-8.8-1.1-12.6-2.3c-12.6-4.2-25.2-7.3-38.5-8.4c-3.4-0.4-7.3-0.8-11.1-1.5c0.8-1.5,1.5-2.7,2.3-4.2c0.4-1.1,0-2.3-1.5-1.9
		c-1.1,0.4-2.7,0.8-3.8,0.4c-2.7-1.5-5-0.8-7.6,0c-4.2,1.1-8.8,1.9-13.4,2.7c0.4-1.9,2.7-2.3,3.4-4.6c-8,3.1-16,1.5-24,1.9
		c-1.5,0-2.7,0.4-3.8,0.8c-8,2.7-16.4,5-23.7,9.2c-0.4,0.4-0.4,0.4-0.8,0v-0.4c0.4-0.4,1.1-0.8,0.8-1.9c-3.8,1.9-6.9,4.6-10.3,7.3
		c-0.4,0.4-0.4,0.8-0.8,0.4c-0.8-0.4,0-0.8,0-1.1c0.4-0.8,1.1-1.9,1.5-2.7c-3.1,1.1-5,3.4-6.9,5.3c-0.8,0.8-0.8,3.8-2.7,1.1
		c0,0-0.8,0-0.8,0.4c-1.1,1.1-2.7,1.9-2.7,4.2c0,1.5-0.8,3.1-1.5,5c-0.4,1.5-1.1,1.5-2.3,0.8c-2.3-1.1-4.2-2.3-6.9-3.4
		c0,1.1-0.4,1.9-0.4,2.7c0,1.9-0.8,1.9-2.3,1.1c-1.5-0.8-3.1-1.5-5-2.3c0.8,3.4,1.5,6.1,2.3,9.2c0.4,1.9,0.4,3.1-1.9,3.4
		c-1.5,0.4-2.3,1.1-2.7,2.7c-0.4,1.9-1.1,3.1-2.3,4.6c-0.4,0.4-0.8,1.1-0.8,1.5c1.1,2.7-1.1,4.2-2.3,6.1c-0.8,1.5-1.9,3.1,0,5
		c0.8,0.8,0.4,1.5,0,2.3c-1.1,1.5-3.1,1.9-3.4,3.8c-2.7,7.3-5,14.9-5.7,22.5c-1.1,11.1-1.1,22.5-1.5,34c-0.8,14.5,3.1,27.9,9.5,40.8
		c3.4,7.3,8.8,13.4,12.2,20.6c1.9,3.8,3.4,7.6,5.7,11.1c3.8,6.1,7.6,11.8,11.4,18.3c3.1,5,5.7,10.3,9.5,14.9
		c3.1,4.2,7.6,5.7,12.2,6.5c3.1,0.4,5.3,1.5,6.9,4.6c3.4,6.5,5.3,13.7,6.1,21c0.4,6.1,0,11.8-1.9,17.6c-0.4,1.1-1.1,1.5-1.9,1.9
		c-6.5,2.7-11.8,7.3-16.4,12.6c-2.3,2.7-4.2,5.3-6.5,8C98.7,383.6,61,324.5,61,256.5C61,156.9,141.9,76,241.5,76
		S422,156.9,422,256.5z"/>
</g>
</svg>
