<?xml version="1.0" encoding="utf-8"?>
<!-- Generator: Adobe Illustrator 23.0.1, SVG Export Plug-In . SVG Version: 6.00 Build 0)  -->
<svg version="1.1" id="Layer_1" xmlns="http://www.w3.org/2000/svg" xmlns:xlink="http://www.w3.org/1999/xlink" x="0px" y="0px"
	 viewBox="0 0 1045 205" style="enable-background:new 0 0 1045 205;" xml:space="preserve">
<style type="text/css">
	.st0{fill-rule:evenodd;clip-rule:evenodd;fill:#3A0E79;}
	.st1{fill-rule:evenodd;clip-rule:evenodd;fill:#039FDA;}
	.st2{fill-rule:evenodd;clip-rule:evenodd;fill:#7BBF43;}
	.st3{fill:#039FDA;}
	.st4{fill:#3A0E79;}
	.st5{fill:#333333;}
</style>
<g>
	<path class="st0" d="M86.6,201c0,0-43.1,4.4-32.1-1.9c11-6.3,20.4-11.3,20.4-11.3s-18.5,3.7-23.6,3.9s-13.1-4.8-2.1-9
		s21.8-7.5,21.8-7.5s2.2-4.2-3-3s-25.2,4-25.2,4s-9-5.1,4.1-8.9c13.1-3.7,5-18.2-1.2-24.7c-2.3-2.5-12.1-15.8-23.6-29.9
		c-18.7-23-33.3-58.9-0.8-92.6c10-10.3,38.8-23.2,64.3-3.7c0,0-51.3-21.8-72.4,35.5c0,0-10,23.3,14.5,52.9L52,136.3
		c0,0,8.7,11.7,8.3,24.2l-1.9,5.7c0,0,25.7-9.4,21.5,1.9c0,0,12.1,0.4,2.6,7.6l-4.2,3.4c0,0-0.8,2.3,4.5,2.3c5.3,0,11,1.5,1.9,8.3
		l-7.9,4.2c0,0-0.4,2.3,6,1.5C83,195.2,86.6,194.9,86.6,201z"/>
	<g>
		<g>
			<polygon id="SVGID_1_" class="st1" points="111.2,27.6 127.9,2.1 134.6,11.5 116,30.5 			"/>
		</g>
	</g>
	<g>
		<g>
			<polygon id="SVGID_3_" class="st2" points="123.3,48.4 157,31.5 158,43 126,53.4 			"/>
		</g>
	</g>
	<g>
		<g>
			<polygon id="SVGID_5_" class="st1" points="124.1,73.6 154.4,76.5 149.3,86.7 123.8,79.2 			"/>
		</g>
	</g>
	<g>
		<g>
			<polygon id="SVGID_7_" class="st2" points="115.6,93.9 140.2,111.9 131.4,124.5 112.5,98.5 			"/>
		</g>
	</g>
	<path class="st3" d="M112,66.8c0,23.1-16.5,42.3-38.4,46.5c-0.1-0.6,0-1.3,0.2-2c0.1-0.3,0.1-0.5,0-0.8c-0.3-0.8-1-1.1-1.5-1.5
		c-0.3-0.2-0.4-0.4-0.2-0.7c0.5-1.2,0.8-2.4,1.2-3.6c0.4-1.2,1.3-1.9,2.7-1.2c1.2,0.6,2.5,0.7,3.7,0.9c2.3,0.3,4.6,0,6.8-0.3
		c1.8-0.2,3.5-2.4,3.2-4c-0.2-1.1,0-1.8,0.8-2.6c0.7-0.8,1.3-1.7,0.8-2.9c-0.1-0.2,0-0.2,0.1-0.3c1.3-1,1.8-2.3,2-3.9
		c0.1-0.8,0.4-1.6,1.3-1.9c1.1-0.3,2-1,2.6-2.1c0.8-1.3,0.8-2.4-0.5-3.3s-2.4-2-3-3.6c0-0.1-0.1-0.3-0.1-0.4
		c-0.2-0.9-0.5-1.8-0.5-2.8s0.2-1.2,1.2-1.2c0.7,0,1.4-0.4,2.2-0.8c-3.1,0-2.9-0.9-2.7-1.2c0.4-0.8,0.8-1.6,1.3-2.3
		c0.5-0.6,0.8-1.2,0.9-2c0.2-0.8,0.2-1.6,0.3-2.4c0.6-3.4,0.4-6.8-0.9-10c-0.2-0.5-0.4-1-0.5-1.4s0.2-0.7,0.6-0.6
		c0.8,0.4,1.7,0.8,2.5,1.3c0-0.1,0-0.3-0.1-0.4c-0.3-0.4-0.2-0.6,0.1-1.1c0.2-0.4,0.4-1,0.7-1.4c0,0,0-0.1-0.1-0.2
		c-0.5-0.5,0-0.6,0.3-0.8c0.4-0.2,1-0.1,1.3-0.6c-0.3-0.2-0.6-0.4-1-0.6c-0.3-0.1-0.3-0.3-0.1-0.5c0.8-1.3,0.8-1.3-0.7-1.7
		c-0.4-0.1-0.4-0.3-0.2-0.6c0.4-0.5,0.6-1,0.7-1.6c0.1-0.4,0.1-0.7-0.5-0.5c-0.4,0.1-0.9,0-1.4,0c-0.4,0-0.7-0.1-0.5-0.6
		c0.1-0.4,0-0.6-0.4-0.6c-0.5-0.1-1.1-0.3-1.6-0.4c-0.4-0.1-0.7-0.3-1-0.4c-0.6-0.4-1.2-0.5-1.7-0.9c0.1-0.4,0.6-0.3,0.7-0.8
		c-1.8,0-3.3-1-4.8-1.7c-0.3-0.1-0.7-0.2-0.8-0.4c-0.2-0.4,0.2-0.6,0.4-0.9s-0.1-0.3-0.2-0.3c-0.7-0.2-1.3-0.4-1.9-0.7
		c-1.2-0.5-2.5-0.7-3.6-1.2c-0.2-0.1-1.1,0.3-0.4-0.5c-0.2-0.1,0-0.4-0.3-0.5c-0.4-0.1-0.4-0.3-0.3-0.6c0.1-0.3,0.1-0.6-0.4-0.5
		c-1.2,0.1-2.3-0.3-3.3-0.6c-3.3-1.1-6.6-1.9-10.1-2.2C66,31.8,65,31.7,64,31.5c0.2-0.4,0.4-0.7,0.6-1.1c0.1-0.3,0-0.6-0.4-0.5
		c-0.3,0.1-0.7,0.2-1,0.1c-0.7-0.4-1.3-0.2-2,0c-1.1,0.3-2.3,0.5-3.5,0.7c0.1-0.5,0.7-0.6,0.9-1.2c-2.1,0.8-4.2,0.4-6.3,0.5
		c-0.4,0-0.7,0.1-1,0.2c-2.1,0.7-4.3,1.3-6.2,2.4c-0.1,0.1-0.1,0.1-0.2,0v-0.1c0.1-0.1,0.3-0.2,0.2-0.5c-1,0.5-1.8,1.2-2.7,1.9
		c-0.1,0.1-0.1,0.2-0.2,0.1c-0.2-0.1,0-0.2,0-0.3c0.1-0.2,0.3-0.5,0.4-0.7c-0.8,0.3-1.3,0.9-1.8,1.4c-0.2,0.2-0.2,1-0.7,0.3
		c0,0-0.2,0-0.2,0.1c-0.3,0.3-0.7,0.5-0.7,1.1c0,0.4-0.2,0.8-0.4,1.3c-0.1,0.4-0.3,0.4-0.6,0.2c-0.6-0.3-1.1-0.6-1.8-0.9
		c0,0.3-0.1,0.5-0.1,0.7c0,0.5-0.2,0.5-0.6,0.3s-0.8-0.4-1.3-0.6c0.2,0.9,0.4,1.6,0.6,2.4c0.1,0.5,0.1,0.8-0.5,0.9
		c-0.4,0.1-0.6,0.3-0.7,0.7c-0.1,0.5-0.3,0.8-0.6,1.2c-0.1,0.1-0.2,0.3-0.2,0.4c0.3,0.7-0.3,1.1-0.6,1.6c-0.2,0.4-0.5,0.8,0,1.3
		c0.2,0.2,0.1,0.4,0,0.6c-0.3,0.4-0.8,0.5-0.9,1c-0.7,1.9-1.3,3.9-1.5,5.9c-0.3,2.9-0.3,5.9-0.4,8.9c-0.2,3.8,0.8,7.3,2.5,10.7
		c0.9,1.9,2.3,3.5,3.2,5.4c0.5,1,0.9,2,1.5,2.9c1,1.6,2,3.1,3,4.8c0.8,1.3,1.5,2.7,2.5,3.9c0.8,1.1,2,1.5,3.2,1.7
		c0.8,0.1,1.4,0.4,1.8,1.2c0.9,1.7,1.4,3.6,1.6,5.5c0.1,1.6,0,3.1-0.5,4.6c-0.1,0.3-0.3,0.4-0.5,0.5c-1.7,0.7-3.1,1.9-4.3,3.3
		c-0.6,0.7-1.1,1.4-1.7,2.1c-14.6-8.3-24.5-23.8-24.5-41.6c0-26.1,21.2-47.3,47.3-47.3S112,40.7,112,66.8z"/>
	<path class="st4" d="M215,28.5c6.2-1.6,14.9-2.8,26.7-2.8c12.8,0,22.1,3.8,28.2,10.9c5.7,6.6,9.4,17.1,9.4,29.6
		c0,12.7-2.8,23.2-8.2,30.4c-7,9.7-17.9,14.3-30.2,14.3c-3.3,0-6.2-0.2-8.5-0.8v50.5h-17.3V28.5H215z M232.3,90.9c2.1,0.8,5,1,8.5,1
		c13.1,0,21-8.9,21-24.6c0-14.9-7.4-22.9-19.4-22.9c-4.8,0-8.2,0.6-10.1,1.2V90.9z"/>
	<path class="st4" d="M291.9,95c0-13.1-0.1-22.5-0.6-31.2h15.2l0.6,18.5h0.6c3.4-13.7,11.5-20.7,18.9-20.7c1.7,0,2.7,0.2,4.1,0.6
		v23.1c-1.4-0.4-3-0.8-5.1-0.8c-8.4,0-14.1,7.6-15.6,18.5c-0.3,2.2-0.6,4.8-0.6,7.6v50.1h-17.5V95z"/>
	<path class="st4" d="M406.9,111.3c0,35.6-17.9,51.5-35.5,51.5c-19.6,0-34.6-18.9-34.6-49.9c0-31.8,14.9-51.3,35.8-51.3
		C393.1,61.7,406.9,81.9,406.9,111.3z M354.8,112.3c0,18.7,6.5,32.8,17.2,32.8c9.9,0,16.9-13.7,16.9-33.2c0-15.1-4.8-32.4-16.7-32.4
		C359.7,79.5,354.8,96.2,354.8,112.3z"/>
	<path class="st4" d="M405.9,183.1c5.7-0.6,10.2-2.8,13.1-7c3.3-5,4.5-12.5,4.5-33.6V63.8H441v85.6c0,20.1-2.7,32.6-8.9,41.3
		c-6.1,7.9-15.8,11.3-24.4,11.3L405.9,183.1z M441.9,36.8c0,7.2-3.7,13.1-9.9,13.1c-5.8,0-9.5-6-9.5-13.1c0-7.6,3.8-13.3,9.8-13.3
		S441.9,29.3,441.9,36.8z"/>
	<path class="st4" d="M471.9,119.1c0.4,17.5,10.2,25,21.3,25c8.1,0,13.9-1.6,19.2-4.4l2.6,16.9c-6,3.4-14.2,6-24.1,6
		c-22.4,0-35.6-19.3-35.6-48.9c0-26.8,11.6-52.1,33.8-52.1c22.4,0,29.8,25.8,29.8,47.1c0,4.6-0.3,8.1-0.6,10.3h-46.4V119.1z
		 M502.2,102c0.1-8.9-2.7-23.6-14.3-23.6c-10.8,0-15.3,13.7-16,23.6H502.2z"/>
	<path class="st4" d="M583.6,157.6c-3.7,2.4-10.9,5-19.6,5c-21.6,0-35.6-19.3-35.6-49.3c0-29,14.2-51.7,38.5-51.7
		c6.4,0,12.9,2,16.9,4.6l-3.1,18.3c-2.8-1.8-7-3.8-13.2-3.8c-13.3,0-21.3,13.7-21.1,31.4c0,19.9,9.2,31.2,21.1,31.2
		c6.1,0,10.4-1.8,13.8-3.8L583.6,157.6z"/>
	<path class="st4" d="M618.6,36.2v27.6h16.6v18.3h-16.6v42.7c0,11.7,2.3,17.9,8.9,17.9c3,0,5.3-0.6,6.8-1.2l0.3,18.7
		c-2.6,1.4-7.1,2.4-12.6,2.4c-6.4,0-11.8-3-15-7.9c-3.7-5.6-5.4-14.3-5.4-27V82.2h-9.9V63.9h9.9V42L618.6,36.2z"/>
	<path class="st3" d="M667.4,47.2h-27.3V26.7h72.3v20.5h-27.5v113.5h-17.5V47.2z"/>
	<path class="st3" d="M777.2,101.2h-36.1v39.3h40.3v20.1h-57.8V26.7h55.6v20.1H741v34.5h36.1v19.9H777.2z"/>
	<path class="st3" d="M815.9,122.7l-8.2,38h-18l30.7-133.9h22.3l31.1,133.9h-18.7l-8.7-38H815.9z M843.3,104.2l-7.5-33
		c-1.8-8.1-3.4-17.3-4.8-25h-0.3c-1.4,7.8-2.8,17.1-4.5,25l-7.4,33H843.3z"/>
	<path class="st3" d="M952.6,156.6c-4.1,3-13.2,6-24.7,6c-30.4,0-48.8-26.6-48.8-67.4c0-44.1,21.9-70.7,51.1-70.7
		c11.5,0,19.7,3.4,23.3,6L949.7,50c-4.5-2.8-10.8-5.2-18.7-5.2c-19.4,0-33.5,17.1-33.5,49.3c0,29.4,12.3,48.3,33.4,48.3
		c7.1,0,14.5-2,19-5L952.6,156.6z"/>
	<path class="st3" d="M985,26.7v53.6h40.5V26.7h17.5v133.9h-17.6v-59h-40.5v59h-17.5V26.7H985z"/>
	<path class="st5" d="M462.9,187.3h-3.8v-1h8.4v1h-3.8v15.3h-0.8L462.9,187.3L462.9,187.3z"/>
	<path class="st5" d="M469.6,186.6c0.7-0.2,1.7-0.3,2.5-0.3c1.5,0,2.5,0.5,3.1,1.3c0.5,0.7,0.8,1.8,0.8,2.9c0,2.2-0.9,3.6-2.3,4.2
		l0,0c0.9,0.4,1.5,1.6,1.8,3.4c0.4,2.5,0.6,3.7,0.9,4.4h-0.8c-0.2-0.5-0.4-1.9-0.7-4c-0.4-2.3-1.1-3.4-2.6-3.5h-1.9v7.4h-0.8V186.6z
		 M470.4,194.2h1.8c1.8,0,3-1.4,3-3.5c0-2.5-1.3-3.5-3.1-3.5c-0.8,0-1.4,0.1-1.7,0.2V194.2z"/>
	<path class="st5" d="M480.5,196.9l-1.4,5.7h-0.8l4.2-16.2h0.8l4.2,16.2h-0.8l-1.5-5.7H480.5z M484.9,196l-1.4-5.4
		c-0.3-1.1-0.4-2-0.6-2.9l0,0c-0.2,0.9-0.4,1.8-0.6,2.8l-1.4,5.5L484.9,196L484.9,196z"/>
	<path class="st5" d="M490.9,186.4v16.2h-0.8v-16.2H490.9z"/>
	<path class="st5" d="M494.6,202.6v-16.2h0.8l4.5,9.6c0.9,2,1.6,3.5,2.2,5.1l0,0c-0.1-2.2-0.1-4-0.1-6.6v-8.1h0.8v16.2H502l-4.4-9.4
		c-0.9-1.9-1.7-3.6-2.3-5.3l0,0c0.1,2,0.1,3.8,0.1,6.5v8.2H494.6z"/>
	<path class="st5" d="M507.2,186.4v16.2h-0.8v-16.2H507.2z"/>
	<path class="st5" d="M510.9,202.6v-16.2h0.8l4.5,9.6c0.9,2,1.6,3.5,2.2,5.1l0,0c-0.1-2.2-0.1-4-0.1-6.6v-8.1h0.8v16.2h-0.8
		l-4.4-9.4c-0.9-1.9-1.7-3.6-2.3-5.3l0,0c0.1,2,0.1,3.8,0.1,6.5v8.2H510.9z"/>
	<path class="st5" d="M531.1,201.9c-0.6,0.3-1.8,0.9-3.4,0.9c-1.5,0-2.9-0.5-4.1-2.1c-1-1.3-1.6-3.5-1.6-6.1c0-4.5,2.1-8.3,6.1-8.3
		c1.2,0,2.3,0.4,2.7,0.7l-0.3,0.9c-0.6-0.4-1.4-0.7-2.5-0.7c-3.2,0-5.1,2.9-5.1,7.3c0,4.6,1.9,7.3,5,7.3c1.2,0,2-0.2,2.4-0.6v-5.7
		h-2.7v-0.9h3.5L531.1,201.9L531.1,201.9z"/>
	<path class="st5" d="M540.4,196.9l-1.4,5.7h-0.8l4.2-16.2h0.8l4.2,16.2h-1l-1.5-5.7H540.4z M544.7,196l-1.4-5.4
		c-0.3-1.1-0.4-2-0.6-2.9l0,0c-0.2,0.9-0.4,1.8-0.6,2.8l-1.4,5.5L544.7,196L544.7,196z"/>
	<path class="st5" d="M549.9,202.6v-16.2h0.8l4.5,9.6c0.9,2,1.6,3.5,2.2,5.1l0,0c-0.1-2.2-0.1-4-0.1-6.6v-8.1h0.8v16.2h-0.8
		l-4.4-9.4c-0.9-1.9-1.7-3.6-2.3-5.3l0,0c0.1,2,0.1,3.8,0.1,6.5v8.2H549.9z"/>
	<path class="st5" d="M561.7,186.6c0.9-0.2,1.9-0.4,3-0.4c2.1,0,3.7,0.8,4.7,2.2c0.9,1.3,1.4,3.2,1.4,5.6c0,2.4-0.5,4.5-1.5,6.1
		s-2.8,2.5-5,2.5c-0.9,0-1.7,0-2.6-0.1L561.7,186.6L561.7,186.6z M562.6,201.6c0.5,0.1,1.1,0.1,1.9,0.1c3.7,0,5.6-2.9,5.6-7.6
		c0-4.1-1.6-6.9-5.3-6.9c-0.9,0-1.6,0.1-2.1,0.3v14.1H562.6z"/>
	<path class="st5" d="M583.8,194.5h-4.6v7.1h5.2v1h-6v-16.2h5.7v1h-4.9v6.2h4.6V194.5z"/>
	<path class="st5" d="M587.2,186.6c0.9-0.2,1.9-0.4,3-0.4c2.1,0,3.7,0.8,4.7,2.2c0.9,1.3,1.4,3.2,1.4,5.6c0,2.4-0.5,4.5-1.5,6.1
		s-2.8,2.5-5,2.5c-0.9,0-1.7,0-2.6-0.1L587.2,186.6L587.2,186.6z M588.1,201.6c0.5,0.1,1.1,0.1,1.9,0.1c3.7,0,5.6-2.9,5.6-7.6
		c0-4.1-1.6-6.9-5.3-6.9c-0.9,0-1.6,0.1-2.1,0.3v14.1H588.1z"/>
	<path class="st5" d="M600.1,186.4v9.8c0,4.1,1.4,5.7,3.1,5.7c1.9,0,3.3-1.7,3.3-5.7v-9.8h0.8v9.7c0,5-1.9,6.8-4.1,6.8
		c-2,0-3.9-1.6-3.9-6.6v-9.9H600.1z"/>
	<path class="st5" d="M618.7,202c-0.6,0.4-1.7,0.8-3.1,0.8c-2.8,0-5.5-2.5-5.5-8.3c0-4.8,2.2-8.5,5.9-8.5c1.5,0,2.3,0.5,2.7,0.7
		l-0.3,1c-0.6-0.4-1.4-0.7-2.4-0.7c-3.1,0-5,2.8-5,7.5c0,4.4,1.8,7.3,4.9,7.3c1,0,1.9-0.3,2.6-0.7L618.7,202z"/>
	<path class="st5" d="M622.9,196.9l-1.4,5.7h-0.8l4.2-16.2h0.8l4.2,16.2h-0.8l-1.5-5.7H622.9z M627.3,196l-1.4-5.4
		c-0.3-1.1-0.4-2-0.6-2.9l0,0c-0.2,0.9-0.4,1.8-0.6,2.8l-1.4,5.5L627.3,196L627.3,196z"/>
	<path class="st5" d="M633.4,187.3h-3.8v-1h8.4v1h-3.8v15.3h-0.8V187.3z"/>
	<path class="st5" d="M640.9,186.4v16.2h-0.8v-16.2H640.9z"/>
	<path class="st5" d="M648.9,202.9c-2.9,0-5.1-3.2-5.1-8.2c0-5.3,2.3-8.6,5.2-8.6s5.1,3.2,5.1,8.2
		C654.1,200.1,651.6,202.9,648.9,202.9L648.9,202.9z M648.9,201.9c2.8,0,4.3-3.5,4.3-7.5c0-3.4-1.3-7.3-4.3-7.3
		c-2.9,0-4.3,3.8-4.3,7.5C644.7,198.3,646.2,201.9,648.9,201.9L648.9,201.9z"/>
	<path class="st5" d="M657,202.6v-16.2h0.8l4.5,9.6c0.9,2,1.6,3.5,2.2,5.1l0,0c-0.1-2.2-0.1-4-0.1-6.6v-8.1h0.8v16.2h-0.8l-4.4-9.4
		c-0.9-1.9-1.7-3.6-2.3-5.3l0,0c0.1,2,0.1,3.8,0.1,6.5v8.2H657z"/>
	<path class="st5" d="M673.4,186.4h5.7v1h-4.9v6.5h4.5v1h-4.5v7.9h-0.8V186.4z"/>
	<path class="st5" d="M686.6,202.9c-2.9,0-5.1-3.2-5.1-8.2c0-5.3,2.3-8.6,5.2-8.6s5.1,3.2,5.1,8.2
		C691.8,200.1,689.3,202.9,686.6,202.9L686.6,202.9z M686.6,201.9c2.8,0,4.3-3.5,4.3-7.5c0-3.4-1.3-7.3-4.3-7.3
		c-2.9,0-4.3,3.8-4.3,7.5C682.4,198.3,683.9,201.9,686.6,201.9L686.6,201.9z"/>
	<path class="st5" d="M694.7,186.6c0.7-0.2,1.7-0.3,2.5-0.3c1.5,0,2.5,0.5,3.1,1.3c0.5,0.7,0.8,1.8,0.8,2.9c0,2.2-0.9,3.6-2.3,4.2
		l0,0c0.9,0.4,1.5,1.6,1.8,3.4c0.4,2.5,0.6,3.7,0.9,4.4h-0.8c-0.2-0.5-0.4-1.9-0.7-4c-0.4-2.3-1.1-3.4-2.6-3.5h-1.8v7.4h-0.8v-15.8
		H694.7z M695.5,194.2h1.8c1.8,0,3-1.4,3-3.5c0-2.5-1.3-3.5-3.1-3.5c-0.8,0-1.4,0.1-1.7,0.2V194.2z"/>
	<path class="st5" d="M710.3,187.3h-3.8v-1h8.4v1h-3.8v15.3h-0.8L710.3,187.3L710.3,187.3z"/>
	<path class="st5" d="M717.8,186.4v7.2h6.4v-7.2h0.8v16.2h-0.8v-8.1h-6.4v8.1H717v-16.2H717.8z"/>
	<path class="st5" d="M734.1,194.5h-4.6v7.1h5.2v1h-6v-16.2h5.7v1h-4.9v6.2h4.6V194.5z"/>
	<path class="st5" d="M743.6,196.9l-1.4,5.7h-0.8l4.2-16.2h0.8l4.2,16.2h-0.8l-1.5-5.7H743.6z M747.9,196l-1.4-5.4
		c-0.3-1.1-0.4-2-0.6-2.9l0,0c-0.2,0.9-0.4,1.8-0.6,2.8l-1.4,5.5L747.9,196L747.9,196z"/>
	<path class="st5" d="M753.1,186.6c0.9-0.2,1.9-0.4,3-0.4c2.1,0,3.7,0.8,4.7,2.2c0.9,1.3,1.4,3.2,1.4,5.6c0,2.4-0.5,4.5-1.5,6.1
		s-2.8,2.5-5,2.5c-0.9,0-1.7,0-2.6-0.1L753.1,186.6L753.1,186.6z M754,201.6c0.5,0.1,1.1,0.1,1.9,0.1c3.7,0,5.6-2.9,5.6-7.6
		c0-4.1-1.6-6.9-5.3-6.9c-0.9,0-1.6,0.1-2.1,0.3v14.1H754z"/>
	<path class="st5" d="M767.7,202.6l-3.9-16.2h0.9l2,8.7c0.6,2.4,1,4.4,1.4,6.2h0.1c0.3-1.8,0.9-3.9,1.5-6.2l2.3-8.7h0.9l-4.3,16.2
		H767.7z"/>
	<path class="st5" d="M775.2,196.9l-1.4,5.7H773l4.2-16.2h0.8l4.2,16.2h-0.8l-1.5-5.7H775.2z M779.6,196l-1.4-5.4
		c-0.3-1.1-0.4-2-0.6-2.9l0,0c-0.2,0.9-0.4,1.8-0.6,2.8l-1.4,5.5L779.6,196L779.6,196z"/>
	<path class="st5" d="M784.8,202.6v-16.2h0.8l4.5,9.6c0.9,2,1.6,3.5,2.2,5.1l0,0c-0.1-2.2-0.1-4-0.1-6.6v-8.1h0.8v16.2h-0.8
		l-4.4-9.4c-0.9-1.9-1.7-3.6-2.3-5.3l0,0c0.1,2,0.1,3.8,0.1,6.5v8.2H784.8z"/>
	<path class="st5" d="M804.5,202c-0.6,0.4-1.7,0.8-3.1,0.8c-2.8,0-5.5-2.5-5.5-8.3c0-4.8,2.2-8.5,5.9-8.5c1.5,0,2.3,0.5,2.7,0.7
		l-0.3,1c-0.6-0.4-1.4-0.7-2.4-0.7c-3.1,0-5,2.8-5,7.5c0,4.4,1.8,7.3,4.9,7.3c1,0,1.9-0.3,2.6-0.7L804.5,202z"/>
	<path class="st5" d="M812.7,194.5h-4.6v7.1h5.2v1h-6v-16.2h5.7v1h-4.9v6.2h4.6V194.5z"/>
	<path class="st5" d="M826,194.9c-0.1-2.4-0.2-5.4-0.2-7.2l0,0c-0.4,1.8-0.9,3.6-1.6,6.1l-2.4,8.8h-0.6l-2.3-8.6
		c-0.7-2.5-1.2-4.5-1.5-6.3l0,0c0,1.9-0.1,4.7-0.3,7.4l-0.4,7.5h-0.8l0.8-16.2h0.9l2.5,9.4c0.6,2,0.9,3.7,1.3,5.3h0.1
		c0.3-1.5,0.7-3.1,1.3-5.3l2.6-9.4h1l0.8,16.2h-0.8L826,194.9z"/>
	<path class="st5" d="M835.9,194.5h-4.6v7.1h5.2v1h-6v-16.2h5.7v1h-4.9v6.2h4.6V194.5z"/>
	<path class="st5" d="M839.3,202.6v-16.2h0.8l4.5,9.6c0.9,2,1.6,3.5,2.2,5.1l0,0c-0.1-2.2-0.1-4-0.1-6.6v-8.1h0.8v16.2h-0.8
		l-4.4-9.4c-0.9-1.9-1.7-3.6-2.3-5.3l0,0c0.1,2,0.1,3.8,0.1,6.5v8.2H839.3z"/>
	<path class="st5" d="M853.3,187.3h-3.8v-1h8.4v1h-3.8v15.3h-0.8L853.3,187.3L853.3,187.3z"/>
	<path class="st5" d="M869,202.9c-2.9,0-5.1-3.2-5.1-8.2c0-5.3,2.3-8.6,5.2-8.6s5.1,3.2,5.1,8.2C874.2,200.1,871.6,202.9,869,202.9
		L869,202.9z M869,201.9c2.8,0,4.3-3.5,4.3-7.5c0-3.4-1.3-7.3-4.3-7.3c-2.9,0-4.3,3.8-4.3,7.5S866.3,201.9,869,201.9L869,201.9z"/>
	<path class="st5" d="M877,186.4h5.7v1h-4.9v6.5h4.5v1h-4.5v7.9H877V186.4z"/>
	<path class="st5" d="M898.3,202c-0.6,0.4-1.7,0.8-3.1,0.8c-2.8,0-5.5-2.5-5.5-8.3c0-4.8,2.2-8.5,5.9-8.5c1.5,0,2.3,0.5,2.7,0.7
		l-0.3,1c-0.6-0.4-1.4-0.7-2.4-0.7c-3.1,0-5,2.8-5,7.5c0,4.4,1.8,7.3,4.9,7.3c1,0,1.9-0.3,2.6-0.7L898.3,202z"/>
	<path class="st5" d="M902,186.4v7.2h6.4v-7.2h0.8v16.2h-0.8v-8.1H902v8.1h-0.8v-16.2H902z"/>
	<path class="st5" d="M913.7,186.4v16.2h-0.8v-16.2H913.7z"/>
	<path class="st5" d="M917.3,186.4h0.8v15.3h5.2v1h-6V186.4z"/>
	<path class="st5" d="M925.9,186.6c0.9-0.2,1.9-0.4,3-0.4c2.1,0,3.7,0.8,4.7,2.2c0.9,1.3,1.4,3.2,1.4,5.6c0,2.4-0.5,4.5-1.5,6.1
		s-2.8,2.5-5,2.5c-0.9,0-1.7,0-2.6-0.1L925.9,186.6L925.9,186.6z M926.7,201.6c0.5,0.1,1.1,0.1,1.9,0.1c3.7,0,5.6-2.9,5.6-7.6
		c0-4.1-1.6-6.9-5.3-6.9c-0.9,0-1.6,0.1-2.1,0.3v14.1H926.7z"/>
	<path class="st5" d="M937.9,186.6c0.7-0.2,1.7-0.3,2.5-0.3c1.5,0,2.5,0.5,3.1,1.3c0.5,0.7,0.8,1.8,0.8,2.9c0,2.2-0.9,3.6-2.3,4.2
		l0,0c0.9,0.4,1.5,1.6,1.8,3.4c0.4,2.5,0.6,3.7,0.9,4.4h-0.8c-0.2-0.5-0.4-1.9-0.7-4c-0.4-2.3-1.1-3.4-2.6-3.5h-1.8v7.4H938v-15.8
		H937.9z M938.7,194.2h1.8c1.8,0,3-1.4,3-3.5c0-2.5-1.3-3.5-3.1-3.5c-0.8,0-1.4,0.1-1.7,0.2V194.2z"/>
	<path class="st5" d="M952.9,194.5h-4.6v7.1h5.2v1h-6v-16.2h5.7v1h-4.9v6.2h4.6V194.5z"/>
	<path class="st5" d="M956.4,202.6v-16.2h0.8l4.5,9.6c0.9,2,1.6,3.5,2.2,5.1l0,0c-0.1-2.2-0.1-4-0.1-6.6v-8.1h0.8v16.2h-0.8
		l-4.4-9.4c-0.9-1.9-1.7-3.6-2.3-5.3l0,0c0.1,2,0.1,3.8,0.1,6.5v8.2H956.4z"/>
	<path class="st5" d="M969.3,185.9c-0.3,1.8-1,4.6-1.3,5.2l-0.6,0.1c0.3-1,0.7-3.6,0.9-5.1L969.3,185.9z"/>
	<path class="st5" d="M971.5,200.8c0.7,0.6,1.6,1.1,2.5,1.1c1.7,0,2.8-1.4,2.8-3.4c0-1.8-0.7-2.9-2.4-3.8c-1.9-0.9-3-2.3-3-4.5
		c0-2.4,1.4-4.1,3.4-4.1c1.1,0,1.9,0.4,2.3,0.7l-0.3,1c-0.3-0.3-1-0.8-2-0.8c-1.9,0-2.5,1.7-2.5,3c0,1.8,0.7,2.7,2.4,3.6
		c1.9,1.1,2.9,2.3,2.9,4.7s-1.2,4.5-3.7,4.5c-1,0-2.2-0.5-2.8-1.1L971.5,200.8z"/>
	<path class="st5" d="M986.2,186.4v7.2h6.4v-7.2h0.8v16.2h-0.8v-8.1h-6.4v8.1h-0.8v-16.2H986.2z"/>
	<path class="st5" d="M1002.5,194.5h-4.6v7.1h5.2v1h-6v-16.2h5.7v1h-4.9v6.2h4.6L1002.5,194.5L1002.5,194.5z"/>
	<path class="st5" d="M1007.4,196.9l-1.4,5.7h-0.8l4.2-16.2h0.8l4.2,16.2h-0.8l-1.5-5.7H1007.4z M1011.7,196l-1.4-5.4
		c-0.3-1.1-0.4-2-0.6-2.9l0,0c-0.2,0.9-0.4,1.8-0.6,2.8l-1.4,5.5L1011.7,196L1011.7,196z"/>
	<path class="st5" d="M1016.9,186.4h0.8v15.3h5.2v1h-6V186.4z"/>
	<path class="st5" d="M1026.3,187.3h-3.8v-1h8.4v1h-3.8v15.3h-0.8L1026.3,187.3L1026.3,187.3z"/>
	<path class="st5" d="M1033.8,186.4v7.2h6.4v-7.2h0.8v16.2h-0.8v-8.1h-6.4v8.1h-0.8v-16.2H1033.8z"/>
</g>
</svg>
