<?xml version="1.0" encoding="utf-8"?>
<!-- Generator: Adobe Illustrator 24.2.1, SVG Export Plug-In . SVG Version: 6.00 Build 0)  -->
<svg version="1.1" id="Layer_1" xmlns="http://www.w3.org/2000/svg" xmlns:xlink="http://www.w3.org/1999/xlink" x="0px" y="0px"
	 viewBox="0 0 36 51.8" style="enable-background:new 0 0 36 51.8;" xml:space="preserve">
<style type="text/css">
	.st0{fill:#4806a6;}
</style>
<path class="st0" d="M36,25.9c0,9.9-8.1,18-18,18s-18-8.1-18-18s8.1-18,18-18S36,16,36,25.9z M17.3,15.1l-2.2,6.9H7.9
	c-0.7,0-0.9,0.9-0.4,1.2l5.8,4.2l-2.2,6.9c-0.2,0.6,0.5,1.2,1.1,0.8l5.8-4.2l5.8,4.2c0.5,0.4,1.3-0.1,1.1-0.8l-2.2-6.9l5.8-4.2
	c0.5-0.4,0.3-1.2-0.4-1.2h-7.2l-2.2-6.9C18.5,14.4,17.5,14.4,17.3,15.1z"/>
</svg>
